<?xml version="1.0" encoding="utf-8"?>
<!-- Generator: Adobe Illustrator 25.2.1, SVG Export Plug-In . SVG Version: 6.00 Build 0)  -->
<svg version="1.1" id="Ebene_1" xmlns="http://www.w3.org/2000/svg" xmlns:xlink="http://www.w3.org/1999/xlink" x="0px" y="0px"
	 viewBox="0 0 974.7 531.1" style="enable-background:new 0 0 974.7 531.1;" xml:space="preserve">
<style type="text/css">
	.st0{fill:#FFFFFF;}
	.st1{fill:#E36633;}
	.st2{fill:#2CB3C4;}
	.st3{fill:#1D1E1B;}
	.st4{fill:#FCC00D;}
</style>
<g>
	<g>
		<path d="M566.4,124.7l-52.1,127.8h-8l-20.7-111.4c-0.2-1.3-0.4-2.9-0.5-4.8c-0.3,0.9-0.6,1.8-0.9,2.6c-0.3,0.8-0.6,1.6-0.8,2.2
			l-47.8,111.4h-7.9l-21.1-127.8h6.9c1.8,0,2.7,0.8,2.9,2.3L433,233.3c0.1,1.1,0.2,2.3,0.3,3.6c0.1,1.2,0.2,2.5,0.3,3.8
			c0.4-1.3,0.8-2.6,1.3-3.9c0.4-1.3,0.9-2.4,1.3-3.5L481.9,127c0.3-0.7,0.7-1.2,1.3-1.7c0.6-0.5,1.3-0.7,2.1-0.7h2
			c1.5,0,2.5,0.8,3,2.3l19.8,106.2c0.2,1.1,0.3,2.2,0.5,3.5c0.1,1.2,0.3,2.5,0.4,3.8c0.4-1.3,0.7-2.6,1.2-3.8
			c0.4-1.2,0.8-2.4,1.2-3.5L555.9,127c0.2-0.7,0.6-1.2,1.3-1.7c0.7-0.5,1.5-0.7,2.3-0.7H566.4z"/>
		<path d="M652,252.5h-6.9c-0.8,0-1.5-0.2-2-0.7c-0.5-0.4-0.8-1-1-1.7l-9-37.4h-56.7l-18.2,37.4c-0.3,0.7-0.8,1.2-1.4,1.7
			c-0.7,0.5-1.4,0.7-2.1,0.7h-6.8l63.1-127.8h8.9L652,252.5z M631.5,206.2l-15.6-65c-0.2-1.1-0.5-2.3-0.7-3.6
			c-0.2-1.3-0.5-2.7-0.7-4.2c-0.6,1.5-1.2,2.9-1.7,4.2c-0.6,1.3-1.1,2.5-1.6,3.7l-31.5,64.9H631.5z"/>
		<path d="M763.7,124.7l-63.5,127.8h-8l-32.6-127.8h7.1c0.8,0,1.5,0.2,2,0.7c0.5,0.5,0.8,1,0.9,1.7l26.3,106.7
			c0.3,1.3,0.6,2.6,0.9,4.1c0.3,1.4,0.5,2.9,0.7,4.5c0.5-1.6,1.1-3.1,1.7-4.5c0.6-1.4,1.2-2.8,1.8-4.1L753.2,127
			c0.3-0.7,0.8-1.2,1.4-1.7c0.6-0.5,1.4-0.7,2.2-0.7H763.7z"/>
		<path d="M788.1,132.1l-6.3,52h50.7l-1,7.2h-50.6l-6.5,53.7h61.2l-1,7.4h-70l15.6-127.8H850l-1,7.4H788.1z"/>
	</g>
	<g>
		<path d="M272.6,274.8v131.6h-26.9v-75.7c0-1.7,0-3.6,0.1-5.7c0.1-2,0.3-4.1,0.5-6.2l-35,67.6c-1.1,2.1-2.5,3.7-4.4,4.8
			c-1.8,1.1-3.9,1.6-6.3,1.6h-4.2c-2.3,0-4.4-0.5-6.3-1.6c-1.8-1.1-3.3-2.7-4.4-4.8L151,318.6c0.2,2.2,0.3,4.3,0.5,6.4
			c0.1,2.1,0.2,4,0.2,5.7v75.7h-26.9V274.8H148c1.3,0,2.5,0,3.5,0.1c1,0.1,1.9,0.2,2.7,0.5c0.8,0.3,1.5,0.8,2.1,1.4
			c0.6,0.6,1.2,1.5,1.9,2.7l33.9,66.7c1.2,2.3,2.4,4.7,3.5,7.1c1.1,2.5,2.2,5,3.2,7.6c1-2.6,2.1-5.2,3.2-7.8
			c1.1-2.5,2.3-4.9,3.6-7.2l33.8-66.5c0.6-1.1,1.2-2,1.9-2.7c0.6-0.6,1.3-1.1,2.1-1.4c0.8-0.3,1.7-0.5,2.7-0.5
			c1-0.1,2.2-0.1,3.5-0.1H272.6z"/>
		<path d="M412.5,406.4h-23.7c-2.6,0-4.8-0.6-6.4-1.9c-1.6-1.2-2.9-2.8-3.7-4.7l-7.8-22.9h-50l-7.8,22.9c-0.7,1.7-1.9,3.2-3.6,4.6
			c-1.7,1.4-3.8,2-6.4,2h-23.8l50.9-131.6h31.2L412.5,406.4z M364,356.1l-12.2-36c-0.9-2.3-1.9-5-2.9-8.1c-1-3.1-2-6.5-3.1-10.1
			c-0.9,3.7-1.9,7.1-2.9,10.2c-1,3.1-2,5.8-2.9,8.1L328,356.1H364z"/>
		<path d="M449.8,328.1h4.9c4.5,0,7.8-1.4,9.8-4.2l29.6-43c1.7-2.3,3.6-3.9,5.6-4.7c2-0.9,4.5-1.3,7.5-1.3h26.6l-39,53.2
			c-2.8,3.7-5.7,6.3-8.9,8c2.3,0.8,4.4,2,6.2,3.5c1.9,1.5,3.6,3.5,5.2,5.9l39.7,61h-27.3c-1.7,0-3.2-0.1-4.5-0.4
			c-1.2-0.2-2.3-0.6-3.2-1.1c-0.9-0.5-1.7-1.1-2.3-1.8c-0.7-0.7-1.3-1.5-1.9-2.4L468,355c-1.1-1.7-2.5-2.9-4.1-3.6
			c-1.7-0.7-3.9-1-6.7-1h-7.4v56h-30.5V274.8h30.5V328.1z"/>
		<path d="M574,298.3V329h41.4v22.6H574v31.3h54v23.5h-84.7V274.8H628v23.5H574z"/>
		<path d="M750.8,406.4h-27.6c-5.1,0-8.8-1.9-11-5.8l-21.9-38.2c-1-1.6-2.2-2.8-3.4-3.6c-1.3-0.8-3.1-1.1-5.4-1.1h-7.8v48.7h-30.5
			V274.8H686c9.5,0,17.6,1,24.3,2.9c6.7,2,12.2,4.7,16.4,8.2c4.2,3.5,7.3,7.6,9.3,12.4c1.9,4.8,2.9,9.9,2.9,15.5
			c0,4.3-0.6,8.3-1.7,12.1c-1.1,3.8-2.8,7.3-5.1,10.5c-2.2,3.2-5,6.1-8.3,8.6c-3.3,2.5-7.1,4.6-11.3,6.2c2,1,3.9,2.3,5.6,3.8
			c1.7,1.5,3.3,3.4,4.7,5.5L750.8,406.4z M686,336.7c4.2,0,7.7-0.5,10.6-1.6c2.9-1.1,5.3-2.5,7.2-4.4c1.9-1.9,3.2-4,4.1-6.5
			c0.8-2.5,1.3-5.2,1.3-8.1c0-5.8-1.9-10.3-5.6-13.5c-3.8-3.3-9.6-4.9-17.5-4.9h-12.3v39H686z"/>
		<path d="M831,301.6c-0.9,1.4-1.9,2.5-2.8,3.2c-1,0.7-2.3,1.1-3.8,1.1c-1.4,0-2.9-0.4-4.5-1.3s-3.4-1.9-5.4-2.9
			c-2-1.1-4.3-2.1-6.9-2.9c-2.6-0.9-5.5-1.3-8.9-1.3c-5.7,0-10,1.2-12.8,3.7c-2.8,2.4-4.2,5.7-4.2,9.9c0,2.6,0.8,4.8,2.5,6.6
			c1.7,1.7,3.9,3.3,6.6,4.5c2.7,1.3,5.9,2.4,9.4,3.5c3.5,1.1,7.1,2.2,10.8,3.5c3.7,1.3,7.3,2.8,10.8,4.6c3.5,1.7,6.7,4,9.4,6.7
			c2.7,2.7,5,6,6.6,9.9c1.7,3.9,2.5,8.6,2.5,14c0,6.1-1.1,11.8-3.2,17.1c-2.1,5.3-5.2,9.9-9.2,13.9c-4,3.9-8.9,7-14.8,9.3
			c-5.9,2.3-12.5,3.4-20,3.4c-4.1,0-8.3-0.4-12.5-1.3c-4.2-0.8-8.4-2-12.3-3.6c-4-1.5-7.7-3.4-11.2-5.5c-3.5-2.1-6.5-4.5-9.1-7
			l9-14.3c0.7-1,1.7-1.9,2.8-2.6c1.2-0.7,2.5-1,3.8-1c1.8,0,3.6,0.6,5.5,1.7c1.8,1.1,3.9,2.4,6.2,3.8c2.3,1.4,5,2.7,8,3.8
			c3,1.1,6.6,1.7,10.7,1.7c5.5,0,9.8-1.2,12.9-3.7c3.1-2.4,4.6-6.3,4.6-11.6c0-3.1-0.8-5.6-2.5-7.5c-1.7-1.9-3.9-3.5-6.6-4.8
			c-2.7-1.3-5.9-2.4-9.3-3.3c-3.5-1-7.1-2-10.7-3.2c-3.7-1.2-7.3-2.6-10.7-4.3c-3.5-1.7-6.6-4-9.3-6.8c-2.7-2.8-5-6.3-6.6-10.5
			c-1.7-4.2-2.5-9.3-2.5-15.5c0-4.9,1-9.8,3-14.4c2-4.7,4.9-8.9,8.8-12.6c3.9-3.7,8.6-6.6,14.2-8.8c5.6-2.2,12-3.3,19.2-3.3
			c4,0,8,0.3,11.8,0.9c3.8,0.6,7.5,1.6,10.9,2.8c3.4,1.2,6.6,2.7,9.6,4.4c3,1.7,5.6,3.7,8,5.8L831,301.6z"/>
	</g>
	<g>
		<polygon class="st4" points="176.9,252.5 124.7,193.3 124.7,124.7 176.4,190.8 229.6,124.7 284.8,191.2 340.4,124.7 380.8,176.9 
			393.3,252.5 339.3,191.5 285.3,252.5 229.4,191.5 		"/>
	</g>
</g>
</svg>
